<svg xmlns="http://www.w3.org/2000/svg" xmlns:xlink="http://www.w3.org/1999/xlink" width="5000" zoomAndPan="magnify" viewBox="0 0 3750 3749.999967" height="5000" preserveAspectRatio="xMidYMid meet" version="1.0"><defs><g/></defs><g fill="#fcfbfa" fill-opacity="1"><g transform="translate(266.990321, 1796.249769)"><g><path d="M -16 -12 L 48 -36 L 268 -567.984375 L 292 -567.984375 L 519.984375 -24 L 559.984375 -12 L 559.984375 0 L 464 0 C 436.269531 0 413.601562 -6.265625 396 -18.796875 C 378.394531 -31.328125 365.328125 -47.726562 356.796875 -68 L 316 -164 L 124.796875 -164 L 72 -36 L 132 -12 L 132 0 L -16 0 Z M 132.796875 -184 L 308 -184 L 220 -394.40625 Z M 132.796875 -184 "/></g></g></g><g fill="#fcfbfa" fill-opacity="1"><g transform="translate(810.991101, 1796.249769)"><g><path d="M 32 -12 L 80 -24 L 80 -376 L 32 -388 L 32 -400 L 104 -400 C 135.46875 -400 160.269531 -389.863281 178.40625 -369.59375 C 185.332031 -361.59375 191.195312 -351.726562 196 -340 C 203.46875 -353.863281 212.269531 -365.863281 222.40625 -376 C 246.40625 -400 276.269531 -412 312 -412 C 341.863281 -412 368.660156 -405.734375 392.390625 -393.203125 C 416.128906 -380.671875 434.664062 -364.269531 448 -344 C 461.332031 -323.726562 468 -302.394531 468 -280 L 468 -24 L 515.984375 -12 L 515.984375 0 L 412 0 C 364 0 340 -24 340 -72 L 340 -280 C 340 -313.601562 334 -339.335938 322 -357.203125 C 310 -375.066406 296 -384 280 -384 C 259.726562 -384 241.59375 -373.332031 225.59375 -352 C 218.664062 -342.9375 212.800781 -332.269531 208 -320 L 208 -24 L 256 -12 L 256 0 L 32 0 Z M 32 -12 "/></g></g></g><g fill="#fcfbfa" fill-opacity="1"><g transform="translate(1342.991792, 1796.249769)"><g><path d="M 240 12 C 204.800781 12 174.265625 5.597656 148.390625 -7.203125 C 122.523438 -20.003906 102.660156 -37.601562 88.796875 -60 C 74.929688 -82.394531 68 -107.726562 68 -136 L 68 -380 L 12 -380 L 12 -400 L 68 -400 L 68 -440 C 68 -488 92 -512 140 -512 L 196 -512 L 196 -400 L 308 -400 L 308 -380 L 196 -380 L 196 -136 C 196 -86.9375 201.066406 -53.335938 211.203125 -35.203125 C 221.335938 -17.066406 236.269531 -8 256 -8 C 275.195312 -8 291.992188 -17.332031 306.390625 -36 C 320.796875 -54.664062 328 -80 328 -112 L 348 -112 C 348 -72.53125 338.128906 -41.992188 318.390625 -20.390625 C 298.660156 1.203125 272.53125 12 240 12 Z M 240 12 "/></g></g></g><g fill="#fcfbfa" fill-opacity="1"><g transform="translate(1702.992321, 1796.249769)"><g><path d="M 244 12 C 177.863281 12 125.992188 -6.796875 88.390625 -44.390625 C 50.796875 -81.992188 32 -133.863281 32 -200 C 32 -266.132812 50.796875 -318 88.390625 -355.59375 C 125.992188 -393.195312 177.863281 -412 244 -412 C 310.132812 -412 362 -393.195312 399.59375 -355.59375 C 437.195312 -318 456 -266.132812 456 -200 C 456 -133.863281 437.195312 -81.992188 399.59375 -44.390625 C 362 -6.796875 310.132812 12 244 12 Z M 244 -4 C 265.332031 -4 283.332031 -18.929688 298 -48.796875 C 312.664062 -78.660156 320 -129.0625 320 -200 C 320 -270.9375 312.664062 -321.335938 298 -351.203125 C 283.332031 -381.066406 265.332031 -396 244 -396 C 222.664062 -396 204.664062 -381.066406 190 -351.203125 C 175.332031 -321.335938 168 -270.9375 168 -200 C 168 -129.0625 175.332031 -78.660156 190 -48.796875 C 204.664062 -18.929688 222.664062 -4 244 -4 Z M 244 -4 "/></g></g></g><g fill="#fcfbfa" fill-opacity="1"><g transform="translate(2190.992907, 1796.249769)"><g><path d="M 32 -12 L 80 -24 L 80 -376 L 32 -388 L 32 -400 L 104 -400 C 135.46875 -400 160.269531 -389.863281 178.40625 -369.59375 C 185.332031 -361.59375 191.195312 -351.726562 196 -340 C 203.46875 -353.863281 212.269531 -365.863281 222.40625 -376 C 246.40625 -400 276.269531 -412 312 -412 C 341.863281 -412 368.660156 -405.734375 392.390625 -393.203125 C 416.128906 -380.671875 434.664062 -364.269531 448 -344 C 461.332031 -323.726562 468 -302.394531 468 -280 L 468 -24 L 515.984375 -12 L 515.984375 0 L 412 0 C 364 0 340 -24 340 -72 L 340 -280 C 340 -313.601562 334 -339.335938 322 -357.203125 C 310 -375.066406 296 -384 280 -384 C 259.726562 -384 241.59375 -373.332031 225.59375 -352 C 218.664062 -342.9375 212.800781 -332.269531 208 -320 L 208 -24 L 256 -12 L 256 0 L 32 0 Z M 32 -12 "/></g></g></g><g fill="#fcfbfa" fill-opacity="1"><g transform="translate(2722.993552, 1796.249769)"><g><path d="M 32 -12 L 80 -24 L 80 -376 L 32 -388 L 32 -400 L 136 -400 C 184 -400 208 -376 208 -328 L 208 -24 L 256 -12 L 256 0 L 32 0 Z M 136 -448 C 120 -448 106.664062 -453.332031 96 -464 C 85.332031 -474.664062 80 -488 80 -504 C 80 -519.988281 85.332031 -533.316406 96 -543.984375 C 106.664062 -554.648438 120 -559.984375 136 -559.984375 C 152 -559.984375 165.332031 -554.648438 176 -543.984375 C 186.664062 -533.316406 192 -519.988281 192 -504 C 192 -488 186.664062 -474.664062 176 -464 C 165.332031 -453.332031 152 -448 136 -448 Z M 136 -448 "/></g></g></g><g fill="#fcfbfa" fill-opacity="1"><g transform="translate(2994.993968, 1796.249769)"><g><path d="M 244 12 C 177.863281 12 125.992188 -6.796875 88.390625 -44.390625 C 50.796875 -81.992188 32 -133.863281 32 -200 C 32 -266.132812 50.796875 -318 88.390625 -355.59375 C 125.992188 -393.195312 177.863281 -412 244 -412 C 310.132812 -412 362 -393.195312 399.59375 -355.59375 C 437.195312 -318 456 -266.132812 456 -200 C 456 -133.863281 437.195312 -81.992188 399.59375 -44.390625 C 362 -6.796875 310.132812 12 244 12 Z M 244 -4 C 265.332031 -4 283.332031 -18.929688 298 -48.796875 C 312.664062 -78.660156 320 -129.0625 320 -200 C 320 -270.9375 312.664062 -321.335938 298 -351.203125 C 283.332031 -381.066406 265.332031 -396 244 -396 C 222.664062 -396 204.664062 -381.066406 190 -351.203125 C 175.332031 -321.335938 168 -270.9375 168 -200 C 168 -129.0625 175.332031 -78.660156 190 -48.796875 C 204.664062 -18.929688 222.664062 -4 244 -4 Z M 244 -4 "/></g></g></g><g fill="#fcfbfa" fill-opacity="1"><g transform="translate(889.009552, 2380.49998)"><g><path d="M 20 -6 L 44 -12 L 44 -268 L 20 -274 L 20 -280 L 134 -280 L 134 -274 L 110 -268 L 110 -142.40625 L 208 -262 L 178 -274 L 178 -280 L 254 -280 L 254 -274 L 222 -262 L 152 -176 L 260 -12 L 280 -6 L 280 0 L 224 0 C 212 0 201.796875 -3 193.390625 -9 C 184.992188 -15 177.195312 -23.332031 170 -34 L 110 -126 L 110 -12 L 134 -6 L 134 0 L 20 0 Z M 20 -6 "/></g></g></g><g fill="#fcfbfa" fill-opacity="1"><g transform="translate(1325.00727, 2380.49998)"><g><path d="M -8 -6 L 24 -18 L 134 -284 L 146 -284 L 260 -12 L 280 -6 L 280 0 L 232 0 C 218.132812 0 206.800781 -3.128906 198 -9.390625 C 189.195312 -15.660156 182.664062 -23.863281 178.40625 -34 L 158 -82 L 62.40625 -82 L 36 -18 L 66 -6 L 66 0 L -8 0 Z M 66.40625 -92 L 154 -92 L 110 -197.203125 Z M 66.40625 -92 "/></g></g></g><g fill="#fcfbfa" fill-opacity="1"><g transform="translate(1757.005051, 2380.49998)"><g><path d="M 20 -6 L 44 -12 L 44 -268 L 20 -274 L 20 -280 L 134 -280 L 134 -274 L 110 -268 L 110 -10 L 196 -10 C 196 -26.800781 200.265625 -42.398438 208.796875 -56.796875 C 212.535156 -62.929688 216.9375 -68 222 -72 L 234 -72 L 234 0 L 20 0 Z M 20 -6 "/></g></g></g><g fill="#fcfbfa" fill-opacity="1"><g transform="translate(2161.002985, 2380.49998)"><g><path d="M 20 -6 L 44 -12 L 44 -268 L 20 -274 L 20 -280 L 134 -280 L 134 -274 L 110 -268 L 110 -10 L 196 -10 C 196 -26.800781 200.265625 -42.398438 208.796875 -56.796875 C 212.535156 -62.929688 216.9375 -68 222 -72 L 234 -72 L 234 0 L 20 0 Z M 20 -6 "/></g></g></g><g fill="#fcfbfa" fill-opacity="1"><g transform="translate(2565.00092, 2380.49998)"><g><path d="M 148 6 C 121.863281 6 98.992188 0.332031 79.390625 -11 C 59.796875 -22.332031 44.664062 -38.929688 34 -60.796875 C 23.332031 -82.660156 18 -109.0625 18 -140 C 18 -170.9375 23.332031 -197.335938 34 -219.203125 C 44.664062 -241.066406 59.796875 -257.664062 79.390625 -269 C 98.992188 -280.332031 121.863281 -286 148 -286 C 174.132812 -286 197 -280.332031 216.59375 -269 C 236.195312 -257.664062 251.332031 -241.066406 262 -219.203125 C 272.664062 -197.335938 278 -170.9375 278 -140 C 278 -109.0625 272.664062 -82.660156 262 -60.796875 C 251.332031 -38.929688 236.195312 -22.332031 216.59375 -11 C 197 0.332031 174.132812 6 148 6 Z M 148 -2 C 158.394531 -2 168.0625 -6.398438 177 -15.203125 C 185.9375 -24.003906 193.335938 -38.671875 199.203125 -59.203125 C 205.066406 -79.734375 208 -106.664062 208 -140 C 208 -173.332031 205.066406 -200.265625 199.203125 -220.796875 C 193.335938 -241.328125 185.9375 -255.992188 177 -264.796875 C 168.0625 -273.597656 158.394531 -278 148 -278 C 137.601562 -278 127.9375 -273.597656 119 -264.796875 C 110.0625 -255.992188 102.660156 -241.328125 96.796875 -220.796875 C 90.929688 -200.265625 88 -173.332031 88 -140 C 88 -106.664062 90.929688 -79.734375 96.796875 -59.203125 C 102.660156 -38.671875 110.0625 -24.003906 119 -15.203125 C 127.9375 -6.398438 137.601562 -2 148 -2 Z M 148 -2 "/></g></g></g></svg>