<svg xmlns="http://www.w3.org/2000/svg" xmlns:xlink="http://www.w3.org/1999/xlink" width="16" zoomAndPan="magnify" viewBox="0 0 3750 3749.999967" height="16" preserveAspectRatio="xMidYMid meet" version="1.0"><defs><clipPath id="076f7512ce"><path d="M 1141.394531 1141.398438 L 2608.394531 1141.398438 L 2608.394531 2608.394531 L 1141.394531 2608.394531 Z M 1141.394531 1141.398438 " clip-rule="nonzero"/></clipPath><clipPath id="e9b9f4357f"><path d="M 124.929688 139.929688 L 3610.179688 139.929688 L 3610.179688 3625.179688 L 124.929688 3625.179688 Z M 124.929688 139.929688 " clip-rule="nonzero"/></clipPath><clipPath id="87b6fec72b"><path d="M 1867.554688 139.929688 C 905.128906 139.929688 124.929688 920.128906 124.929688 1882.554688 C 124.929688 2844.980469 905.128906 3625.179688 1867.554688 3625.179688 C 2829.980469 3625.179688 3610.179688 2844.980469 3610.179688 1882.554688 C 3610.179688 920.128906 2829.980469 139.929688 1867.554688 139.929688 " clip-rule="nonzero"/></clipPath><clipPath id="f062c850a2"><path d="M 412.292969 503 L 3275.792969 503 L 3275.792969 3297 L 412.292969 3297 Z M 412.292969 503 " clip-rule="nonzero"/></clipPath></defs><g clip-path="url(#076f7512ce)"><path fill="#ffffff" d="M 1874.894531 1141.398438 C 1469.796875 1141.398438 1141.394531 1469.796875 1141.394531 1874.898438 C 1141.394531 2279.996094 1469.796875 2608.398438 1874.894531 2608.398438 C 2279.996094 2608.398438 2608.394531 2279.996094 2608.394531 1874.898438 C 2608.394531 1469.796875 2279.996094 1141.398438 1874.894531 1141.398438 " fill-opacity="1" fill-rule="nonzero"/></g><g clip-path="url(#e9b9f4357f)"><g clip-path="url(#87b6fec72b)"><path stroke-linecap="butt" transform="matrix(0.750025, 0, 0, 0.750025, 124.929106, 139.929189)" fill="none" stroke-linejoin="miter" d="M 2323.422751 0.000664752 C 1040.231467 0.000664752 0.000774736 1040.231357 0.000774736 2323.422641 C 0.000774736 3606.613925 1040.231467 4646.844617 2323.422751 4646.844617 C 3606.614035 4646.844617 4646.844727 3606.613925 4646.844727 2323.422641 C 4646.844727 1040.231357 3606.614035 0.000664752 2323.422751 0.000664752 " stroke="#d9d9d9" stroke-width="28" stroke-opacity="1" stroke-miterlimit="4"/></g></g><g clip-path="url(#f062c850a2)"><path fill="#161614" d="M 1844.042969 503.039062 C 1053.414062 503.039062 412.292969 1144.109375 412.292969 1934.925781 C 412.292969 2567.640625 822.53125 3104.371094 1391.417969 3293.648438 C 1462.972656 3306.960938 1489.246094 3262.550781 1489.246094 3224.738281 C 1489.246094 3190.621094 1487.914062 3077.859375 1487.300781 2958.164062 C 1088.984375 3044.859375 1004.933594 2789.246094 1004.933594 2789.246094 C 939.800781 2623.683594 845.957031 2579.71875 845.957031 2579.71875 C 716.058594 2490.898438 855.753906 2492.6875 855.753906 2492.6875 C 999.523438 2502.757812 1075.226562 2640.238281 1075.226562 2640.238281 C 1202.929688 2859.160156 1410.175781 2795.847656 1491.875 2759.265625 C 1504.726562 2666.753906 1541.808594 2603.546875 1582.746094 2567.75 C 1264.765625 2531.617188 930.460938 2408.789062 930.460938 1860.199219 C 930.460938 1703.808594 986.390625 1576.082031 1077.976562 1475.804688 C 1063.113281 1439.738281 1014.109375 1294.109375 1091.847656 1096.867188 C 1091.847656 1096.867188 1212.082031 1058.386719 1485.691406 1243.648438 C 1599.859375 1211.921875 1722.34375 1196.015625 1844.042969 1195.46875 C 1965.738281 1196.015625 2088.332031 1211.921875 2202.761719 1243.648438 C 2476.023438 1058.386719 2596.046875 1096.867188 2596.046875 1096.867188 C 2674.007812 1294.109375 2625.015625 1439.738281 2610.140625 1475.804688 C 2701.859375 1576.082031 2757.453125 1703.808594 2757.453125 1860.199219 C 2757.453125 2410.132812 2422.558594 2531.171875 2103.65625 2566.632812 C 2155 2611.042969 2200.859375 2698.1875 2200.859375 2831.867188 C 2200.859375 3023.382812 2199.183594 3177.644531 2199.183594 3224.738281 C 2199.183594 3262.886719 2224.910156 3307.519531 2297.503906 3293.425781 C 2866.066406 3103.925781 3275.792969 2567.414062 3275.792969 1934.925781 C 3275.792969 1144.109375 2634.746094 503.039062 1844.042969 503.039062 Z M 948.539062 2542.804688 C 945.382812 2549.964844 934.1875 2552.089844 923.996094 2547.167969 C 913.605469 2542.46875 907.777344 2532.847656 911.144531 2525.6875 C 914.21875 2518.304688 925.441406 2516.292969 935.796875 2521.214844 C 946.210938 2525.914062 952.140625 2535.644531 948.539062 2542.804688 Z M 1018.960938 2605.671875 C 1012.128906 2611.9375 998.785156 2609.03125 989.722656 2599.074219 C 980.359375 2589.003906 978.605469 2575.695312 985.527344 2569.316406 C 992.574219 2562.941406 1005.515625 2565.960938 1014.902344 2575.917969 C 1024.273438 2585.984375 1026.097656 2599.296875 1018.960938 2605.671875 Z M 1067.273438 2686.105469 C 1058.503906 2692.144531 1044.164062 2686.441406 1035.292969 2673.6875 C 1026.523438 2660.933594 1026.523438 2645.722656 1035.484375 2639.570312 C 1044.375 2633.417969 1058.503906 2639.007812 1067.484375 2651.652344 C 1076.230469 2664.515625 1076.230469 2679.839844 1067.273438 2686.105469 Z M 1148.984375 2779.179688 C 1141.140625 2787.792969 1124.417969 2785.554688 1112.195312 2773.695312 C 1099.664062 2762.175781 1096.1875 2745.730469 1104.0625 2737.117188 C 1112.003906 2728.503906 1128.816406 2730.851562 1141.140625 2742.597656 C 1153.558594 2754.121094 1157.359375 2770.675781 1148.984375 2779.179688 Z M 1254.597656 2810.613281 C 1251.128906 2821.796875 1235.03125 2826.945312 1218.8125 2822.132812 C 1202.617188 2817.324219 1192.023438 2804.125 1195.289062 2792.824219 C 1198.65625 2781.527344 1214.832031 2776.15625 1231.164062 2781.304688 C 1247.335938 2786.226562 1257.964844 2799.203125 1254.597656 2810.613281 Z M 1374.773438 2823.925781 C 1375.175781 2835.78125 1361.429688 2845.515625 1344.40625 2845.738281 C 1327.28125 2846.183594 1313.433594 2836.566406 1313.242188 2824.929688 C 1313.242188 2813.074219 1326.6875 2803.339844 1343.8125 2803.117188 C 1360.835938 2802.78125 1374.773438 2812.179688 1374.773438 2823.925781 Z M 1492.835938 2819.449219 C 1494.875 2830.972656 1483.050781 2842.828125 1466.136719 2845.960938 C 1449.527344 2848.980469 1434.136719 2841.824219 1432.023438 2830.414062 C 1429.964844 2818.667969 1442.011719 2806.808594 1458.597656 2803.789062 C 1475.535156 2800.769531 1490.679688 2807.703125 1492.835938 2819.449219 Z M 1492.835938 2819.449219 " fill-opacity="1" fill-rule="nonzero"/></g></svg>